<?xml version="1.0" encoding="utf-8"?>

<!DOCTYPE svg PUBLIC "-//W3C//DTD SVG 1.1//EN" "http://www.w3.org/Graphics/SVG/1.1/DTD/svg11.dtd">
<!-- Uploaded to: SVG Repo, www.svgrepo.com, Generator: SVG Repo Mixer Tools -->
<svg height="800px" width="800px" version="1.1" id="_x32_" xmlns="http://www.w3.org/2000/svg" xmlns:xlink="http://www.w3.org/1999/xlink" 
	 viewBox="0 0 512 512"  xml:space="preserve">
<style type="text/css">
	.st0{fill:#000000;}
</style>
<g>
	<path class="st0" d="M256,0c-71.892,0-139.553,64.408-114.178,188.496c5.033,24.645,18.593,52.263,37.071,80.7
		c23.106-20.854,45.632-42.528,65.442-63.837c-6.358-7.169-12.36-14.289-17.94-21.301C180.458,126.282,188.339,55.542,256,55.542
		s75.542,70.741,29.596,128.517C201.038,290.422,18.767,420.414,18.767,420.414L103.756,512c0,0,241.04-199.415,266.415-323.504
		C395.544,64.408,327.883,0,256,0z"/>
	<path class="st0" d="M336.195,295.282c-18.18,25.896-41.012,53.895-68.414,83.913C336.907,452.99,408.236,512,408.236,512
		l84.997-91.586C493.233,420.414,414.288,364.102,336.195,295.282z"/>
</g>
</svg>