<?xml version="1.0" standalone="no"?>
<!DOCTYPE svg PUBLIC "-//W3C//DTD SVG 20010904//EN"
 "http://www.w3.org/TR/2001/REC-SVG-20010904/DTD/svg10.dtd">
<svg version="1.0" xmlns="http://www.w3.org/2000/svg"
 width="2000.000000pt" height="2000.000000pt" viewBox="0 0 2000.000000 2000.000000"
 preserveAspectRatio="xMidYMid meet">

<g transform="translate(0.000000,2000.000000) scale(0.100000,-0.100000)"
fill="#000000" stroke="none">
<path d="M7919 15831 c-18 -13 -41 -57 -68 -126 -22 -57 -41 -109 -41 -115 0
-13 -24 -52 -63 -102 -20 -27 -36 -38 -55 -38 -52 0 -146 -54 -197 -113 -26
-31 -62 -61 -79 -68 -17 -7 -51 -30 -75 -51 -55 -48 -83 -55 -127 -34 -19 9
-37 16 -40 16 -14 0 -99 -90 -116 -125 -11 -22 -26 -43 -32 -47 -35 -23 -90 7
-131 72 -20 31 -31 38 -67 43 -124 17 -162 31 -185 67 -37 57 -41 60 -96 60
-29 0 -61 3 -73 6 -32 8 -50 -17 -78 -109 -14 -46 -36 -97 -48 -114 -102 -139
-126 -162 -170 -164 -13 0 -54 -17 -93 -37 -50 -27 -75 -46 -86 -69 -25 -51
-36 -60 -84 -72 -33 -8 -46 -17 -50 -34 -6 -23 -81 -77 -107 -77 -8 0 -25 11
-38 25 -13 14 -31 25 -41 25 -20 0 -100 -108 -128 -173 -16 -38 -26 -47 -74
-66 -54 -22 -55 -23 -84 -99 -29 -72 -64 -207 -163 -617 -49 -200 -157 -669
-195 -840 -52 -238 -68 -300 -82 -315 -11 -12 -13 -2 -13 62 0 43 5 88 11 101
14 31 -3 67 -33 67 -11 0 -37 17 -57 39 -20 21 -55 51 -79 67 -24 15 -54 47
-68 70 -27 45 -33 48 -135 60 -77 8 -96 -12 -89 -94 3 -39 -20 -91 -55 -119
-19 -17 -47 -59 -68 -103 -43 -94 -55 -104 -107 -96 -32 5 -47 2 -78 -17 -71
-46 -102 -82 -102 -120 0 -19 -8 -45 -18 -58 -18 -21 -20 -22 -43 -6 -39 28
-64 21 -104 -27 -19 -24 -48 -49 -63 -55 -16 -7 -33 -25 -39 -41 -12 -31 -27
-37 -53 -20 -12 8 -12 14 3 46 15 30 16 39 5 45 -22 14 -36 10 -44 -13 -12
-40 -35 -58 -76 -58 -46 0 -74 -25 -84 -75 -4 -22 -17 -44 -35 -58 -16 -12
-41 -32 -56 -44 -14 -13 -32 -23 -40 -23 -8 0 -38 -22 -66 -49 -64 -61 -140
-104 -154 -90 -20 20 -46 4 -73 -41 -14 -25 -40 -54 -58 -65 -37 -24 -54 -69
-76 -200 -29 -171 -49 -396 -70 -795 -9 -157 -21 -339 -26 -405 -6 -66 -15
-214 -20 -330 -6 -115 -12 -241 -15 -280 -34 -489 -26 -1550 15 -2090 23 -297
25 -456 8 -488 -6 -12 -12 -47 -12 -78 -1 -86 50 -149 121 -149 22 0 24 -3 18
-22 -43 -136 -39 -154 31 -151 71 3 116 25 196 99 39 36 94 79 122 95 28 15
59 42 69 59 18 29 50 40 62 20 3 -5 14 -10 24 -10 10 0 24 -7 31 -15 9 -11 39
-209 40 -271 0 -5 6 -18 13 -28 12 -16 18 -16 107 -1 95 17 132 30 185 70 17
12 44 25 60 29 18 4 47 26 72 54 l42 47 10 -29 c15 -38 61 -565 81 -926 11
-206 39 -500 48 -514 3 -6 8 -73 11 -151 6 -128 8 -145 30 -177 14 -19 37 -44
53 -54 35 -23 40 -40 42 -123 l1 -66 55 3 c44 2 65 11 115 44 33 22 78 57 100
78 22 20 63 52 90 70 28 17 69 53 92 79 41 43 43 45 49 24 13 -47 49 -20 74
56 l15 46 55 5 c46 4 57 9 67 30 7 14 10 35 7 47 -9 34 5 47 27 27 40 -36 71
-104 75 -167 6 -74 8 -77 44 -77 47 0 110 29 178 82 35 27 90 65 122 84 32 19
68 46 80 62 11 15 29 38 39 52 18 23 19 23 36 6 19 -19 27 -19 130 8 130 34
164 47 199 75 21 17 50 33 66 36 32 7 83 59 108 111 16 35 55 48 64 22 3 -7 3
-68 1 -136 l-3 -123 33 -14 c23 -9 38 -25 46 -47 23 -62 26 -64 135 -141 26
-18 26 -20 27 -155 1 -75 4 -148 8 -162 12 -42 45 -51 126 -33 39 8 80 17 91
19 12 2 45 20 74 39 63 42 106 46 120 11 5 -13 14 -89 20 -168 6 -78 13 -154
15 -168 3 -14 10 -81 15 -150 6 -69 17 -174 25 -235 9 -60 18 -128 21 -151 3
-24 16 -54 34 -75 16 -19 61 -78 101 -133 66 -90 73 -105 90 -185 10 -47 18
-102 19 -121 1 -52 34 -118 65 -130 53 -20 185 16 303 82 86 49 132 92 157
148 10 22 20 39 24 38 30 -3 56 9 107 50 33 26 79 54 104 62 54 18 106 68 142
138 33 61 52 66 91 22 38 -42 78 -41 110 3 39 51 67 113 74 164 7 49 31 83 60
83 10 0 40 -8 66 -17 35 -13 52 -15 65 -7 31 20 62 90 71 163 10 78 18 94 79
160 36 37 45 42 69 37 40 -10 95 -57 106 -92 5 -16 29 -49 52 -74 56 -59 66
-81 76 -159 12 -104 40 -225 55 -240 11 -12 26 -12 93 -3 82 12 153 39 207 79
17 13 37 23 45 23 31 0 77 41 107 92 22 39 40 59 64 68 18 7 54 34 79 60 35
36 58 50 97 60 69 16 96 39 132 114 43 92 97 121 119 63 23 -59 76 -60 104 -2
9 20 24 38 32 41 31 12 42 -15 54 -133 7 -72 18 -127 27 -142 15 -22 20 -23
103 -19 92 6 176 36 234 84 16 13 35 24 43 24 28 0 65 33 89 80 26 52 39 64
75 75 14 3 45 29 70 56 44 48 47 49 124 60 148 20 372 110 417 168 11 14 34
45 50 69 30 43 225 182 255 182 40 0 77 33 104 93 16 34 42 76 60 92 35 33 35
33 72 -34 20 -36 55 -41 81 -13 35 39 87 154 87 193 0 28 7 47 28 70 l29 32
45 -21 c50 -25 96 -28 121 -9 9 6 26 37 36 67 11 30 26 56 34 58 22 5 73 -44
90 -85 17 -42 52 -78 109 -112 46 -28 52 -44 43 -140 -8 -88 8 -197 33 -224
13 -15 25 -17 67 -12 101 13 180 38 213 66 17 16 55 38 83 50 40 17 59 34 90
80 56 82 93 98 140 60 23 -18 24 -27 29 -165 6 -187 5 -185 127 -167 97 14
148 33 213 80 24 17 49 31 56 31 21 0 70 47 103 99 21 32 44 54 71 66 22 10
51 33 65 51 19 25 42 38 90 53 94 29 99 33 130 103 15 35 33 66 39 70 23 16
63 7 86 -17 29 -31 66 -32 90 -2 10 12 33 38 49 58 17 20 72 61 123 92 68 40
123 84 204 165 98 98 116 112 167 127 47 14 63 24 92 62 19 25 35 50 35 55 0
5 14 29 30 54 21 30 38 44 53 44 27 0 47 -17 47 -40 0 -27 23 -50 45 -44 12 3
35 26 53 52 30 45 39 67 76 195 10 32 26 67 36 77 19 19 20 18 54 -16 46 -46
83 -46 124 0 16 19 31 38 33 43 2 5 25 24 51 41 26 18 62 50 79 72 18 22 53
50 78 62 25 12 63 41 85 65 30 33 41 40 55 32 31 -20 71 6 94 61 19 46 24 50
55 50 24 0 42 8 62 29 l29 29 -5 663 c-5 596 -4 662 10 645 8 -10 20 -42 25
-70 16 -80 50 -433 62 -635 l11 -183 -23 -32 c-19 -25 -24 -43 -24 -92 0 -58
3 -65 47 -122 42 -53 49 -69 58 -131 11 -81 32 -139 54 -147 16 -6 99 16 142
39 16 8 56 41 89 72 33 31 84 70 114 87 30 17 62 45 73 64 19 33 50 45 63 24
10 -16 40 -12 58 8 10 10 24 42 33 72 l16 53 42 -6 c64 -9 76 5 87 99 10 83 4
322 -11 459 -5 44 -14 132 -20 195 -6 63 -15 142 -20 175 -5 33 -17 116 -26
185 -9 69 -22 161 -29 205 -8 44 -17 107 -20 140 -4 33 -13 101 -21 150 -8 50
-14 122 -14 160 0 39 -7 95 -15 125 -8 30 -15 75 -15 100 0 24 -7 98 -15 165
-18 153 -49 808 -75 1570 -5 154 -12 298 -15 320 -2 22 -9 128 -15 235 -5 107
-14 251 -20 320 -5 69 -17 220 -26 335 -28 383 -54 639 -68 685 -15 47 -34
200 -60 480 -9 91 -23 237 -31 325 -8 88 -15 186 -15 218 0 34 -8 78 -21 109
-11 29 -22 73 -25 98 -10 89 -25 122 -77 177 -58 62 -111 93 -157 93 -31 0
-33 -4 -30 -56 2 -42 -101 -148 -154 -158 -24 -5 -59 -27 -104 -67 -60 -54
-70 -59 -99 -54 -40 7 -69 -18 -79 -70 -6 -32 -10 -36 -33 -33 -22 3 -33 17
-73 98 -74 150 -91 211 -95 325 -4 158 -5 159 -76 205 -34 21 -95 73 -135 115
-82 86 -118 105 -195 105 -64 0 -83 -15 -72 -57 23 -94 22 -101 -41 -162 -33
-31 -72 -76 -87 -100 -21 -32 -32 -41 -45 -36 -31 13 -96 24 -148 25 -63 0
-76 -13 -100 -99 -14 -50 -27 -74 -59 -105 -103 -101 -149 -136 -177 -136 -9
0 -31 12 -48 26 -26 23 -35 25 -55 16 -14 -6 -27 -24 -31 -39 -4 -15 -20 -43
-36 -61 -15 -18 -28 -43 -28 -55 0 -48 -11 -67 -39 -67 -15 0 -47 -10 -71 -22
-35 -18 -46 -30 -53 -58 -9 -37 -24 -60 -38 -60 -23 0 -63 134 -74 250 -4 36
-15 83 -25 106 -17 41 -66 85 -105 98 -28 9 -65 44 -104 98 -60 84 -144 126
-227 113 -52 -7 -75 -33 -100 -108 -9 -29 -30 -76 -45 -106 -16 -30 -29 -61
-29 -69 0 -50 -76 -112 -137 -112 -58 0 -156 -72 -199 -147 -12 -23 -26 -33
-42 -33 -31 0 -71 -22 -106 -59 -32 -34 -66 -40 -90 -16 -17 18 -21 38 -35
186 -10 103 -43 219 -63 219 -6 0 -7 7 -4 15 3 9 -8 57 -25 107 -20 62 -33
127 -40 200 -6 72 -16 122 -28 146 -22 43 -79 99 -136 134 -22 14 -56 45 -75
68 -79 96 -81 97 -230 93 -41 -1 -79 -40 -105 -111 -66 -176 -137 -265 -228
-286 -16 -4 -46 -18 -66 -32 -22 -14 -45 -22 -54 -18 -22 8 -44 74 -56 164 -6
41 -18 108 -27 149 -19 82 -28 93 -157 196 -38 30 -85 75 -104 101 -41 53 -74
70 -161 80 -109 12 -121 1 -216 -193 -93 -189 -120 -209 -304 -227 -71 -7
-137 -18 -147 -23 -10 -6 -34 -41 -54 -79 -38 -72 -85 -114 -128 -114 -30 0
-104 -67 -153 -140 -42 -61 -58 -78 -149 -163 -73 -68 -82 -66 -100 20 -16 82
-51 134 -124 186 -34 25 -88 74 -120 110 -72 82 -95 92 -189 80 -40 -6 -81
-13 -90 -17 -38 -17 -103 173 -119 344 -16 170 -25 188 -122 261 -45 33 -87
64 -93 67 -5 4 -20 24 -33 44 -35 59 -74 86 -135 93 -111 14 -114 11 -218
-197 -88 -178 -142 -223 -222 -187 -36 17 -71 129 -96 309 -12 80 -26 158 -32
173 -6 16 -32 45 -59 65 -125 97 -180 146 -199 177 -25 41 -36 46 -130 52 -66
5 -78 3 -101 -16z"/>
</g>
</svg>
